<svg xmlns="http://www.w3.org/2000/svg" width="16.703" height="16.670" viewBox="0 0 16.703 16.670" fill="none">
  <path d="M 7.973 1.266 L 14.072 5.384 L 15.947 5.384 L 13.216 3.54 L 13.216 1.623 L 10.378 1.623 L 7.973 0 L 5.569 1.623 L 2.729 1.623 L 2.729 3.54 L 0 5.384 L 1.873 5.384 L 7.973 1.266 Z" fill="currentColor" fill-rule="nonzero"></path>
  <path d="M 10.032 13.223 C 10.009 13.166 9.995 13.1 9.994 13.03 L 9.994 12.239 C 9.994 11.948 10.23 11.712 10.521 11.712 L 11.312 11.712 C 11.603 11.712 11.839 11.948 11.839 12.239 L 11.839 12.303 C 12.332 12.015 12.799 11.715 13.234 11.403 L 13.234 5.475 L 2.729 5.475 L 2.729 14.097 C 4.146 14.902 7.01 14.583 10.032 13.222 L 10.032 13.223 Z M 9.994 7.03 C 9.998 6.742 10.232 6.51 10.521 6.51 L 11.312 6.51 C 11.601 6.51 11.836 6.742 11.839 7.03 L 11.839 7.821 C 11.839 8.112 11.603 8.348 11.312 8.348 L 10.521 8.348 C 10.23 8.348 9.994 8.112 9.994 7.821 L 9.994 7.03 Z M 9.994 9.64 C 9.994 9.349 10.23 9.113 10.521 9.113 L 11.312 9.113 C 11.603 9.113 11.839 9.349 11.839 9.64 L 11.839 10.431 C 11.839 10.722 11.603 10.958 11.312 10.958 L 10.521 10.958 C 10.23 10.958 9.994 10.722 9.994 10.431 L 9.994 9.64 Z M 7.06 7.027 C 7.064 6.741 7.295 6.511 7.58 6.507 L 8.371 6.507 C 8.66 6.507 8.895 6.739 8.898 7.027 L 8.898 7.818 C 8.898 8.109 8.662 8.345 8.371 8.345 L 7.58 8.345 C 7.292 8.341 7.06 8.106 7.06 7.818 L 7.06 7.027 Z M 7.06 9.636 C 7.06 9.347 7.293 9.112 7.58 9.109 L 8.371 9.109 C 8.662 9.109 8.898 9.345 8.898 9.636 L 8.898 10.427 C 8.898 10.717 8.662 10.953 8.371 10.953 L 7.58 10.953 C 7.292 10.95 7.06 10.715 7.06 10.427 L 7.06 9.636 Z M 7.06 12.242 C 7.06 11.954 7.293 11.719 7.58 11.716 L 8.371 11.716 C 8.662 11.716 8.898 11.952 8.898 12.242 L 8.898 13.033 C 8.894 13.321 8.659 13.553 8.371 13.553 L 7.58 13.553 C 7.295 13.549 7.064 13.319 7.06 13.034 L 7.06 12.242 Z M 4.127 7.027 C 4.131 6.739 4.365 6.507 4.654 6.507 L 5.445 6.507 C 5.731 6.507 5.963 6.74 5.963 7.026 C 5.963 7.027 5.963 7.027 5.963 7.028 L 5.963 7.819 C 5.963 7.821 5.963 7.823 5.963 7.827 C 5.963 8.113 5.731 8.345 5.445 8.346 L 4.654 8.346 C 4.363 8.346 4.127 8.11 4.127 7.819 L 4.127 7.027 Z M 4.127 9.636 C 4.127 9.345 4.363 9.109 4.654 9.109 L 5.445 9.109 C 5.731 9.114 5.963 9.347 5.963 9.636 L 5.963 10.427 C 5.963 10.714 5.733 10.948 5.445 10.953 L 4.654 10.953 C 4.364 10.953 4.128 10.717 4.128 10.427 L 4.127 9.636 Z M 4.127 12.242 C 4.127 11.952 4.363 11.716 4.654 11.716 L 5.445 11.716 C 5.731 11.716 5.963 11.948 5.963 12.235 C 5.963 12.238 5.963 12.241 5.963 12.243 L 5.963 13.034 C 5.959 13.318 5.729 13.548 5.445 13.553 L 4.654 13.553 C 4.366 13.553 4.132 13.322 4.128 13.035 L 4.127 12.242 Z" fill="currentColor" fill-rule="nonzero"></path>
  <path d="M 10.84 13.349 C 6.774 15.47 2.727 15.755 1.802 13.98 C 1.539 13.479 1.565 12.861 1.819 12.189 C 0.917 13.415 0.584 14.587 1.029 15.445 C 2.002 17.309 6.256 17.011 10.53 14.787 C 14.571 12.679 17.181 9.595 16.63 7.69 C 16.214 9.445 13.985 11.705 10.84 13.349 Z" fill="currentColor" fill-rule="nonzero"></path>
  <path d="M 2.729 10.386 C 3.201 10.372 3.665 10.351 4.127 10.323 L 4.127 9.636 C 4.127 9.345 4.363 9.109 4.654 9.109 L 5.445 9.109 C 5.731 9.114 5.963 9.347 5.963 9.636 L 5.963 10.187 C 6.335 10.153 6.704 10.114 7.071 10.071 L 7.071 9.636 C 7.071 9.347 7.303 9.112 7.591 9.109 L 8.382 9.109 C 8.673 9.109 8.909 9.345 8.909 9.636 L 8.909 9.816 C 9.282 9.755 9.653 9.693 10.018 9.625 C 10.027 9.344 10.255 9.118 10.537 9.114 L 11.328 9.114 C 11.477 9.116 11.61 9.178 11.706 9.279 C 12.232 9.159 12.742 9.029 13.243 8.892 L 13.243 5.478 L 2.73 5.478 L 2.729 10.386 Z M 9.994 7.027 C 9.998 6.739 10.232 6.507 10.521 6.507 L 11.312 6.507 C 11.601 6.507 11.836 6.739 11.839 7.027 L 11.839 7.818 C 11.839 8.109 11.603 8.345 11.312 8.345 L 10.521 8.345 C 10.23 8.345 9.994 8.109 9.994 7.818 L 9.994 7.027 Z M 7.06 7.027 C 7.064 6.741 7.295 6.511 7.58 6.507 L 8.371 6.507 C 8.66 6.507 8.895 6.739 8.898 7.027 L 8.898 7.818 C 8.898 8.109 8.662 8.345 8.371 8.345 L 7.58 8.345 C 7.292 8.341 7.06 8.106 7.06 7.818 L 7.06 7.027 Z M 4.127 7.027 C 4.131 6.739 4.365 6.507 4.654 6.507 L 5.445 6.507 C 5.731 6.507 5.963 6.74 5.963 7.026 C 5.963 7.027 5.963 7.027 5.963 7.028 L 5.963 7.819 C 5.963 7.821 5.963 7.823 5.963 7.827 C 5.963 8.113 5.731 8.345 5.445 8.346 L 4.654 8.346 C 4.363 8.346 4.127 8.11 4.127 7.819 L 4.127 7.027 Z" fill="currentColor" fill-rule="nonzero"></path>
</svg>