<svg preserveAspectRatio="none" overflow="visible" style="display: block;" width="195" height="44" viewBox="0 0 195 44" fill="none" xmlns="http://www.w3.org/2000/svg">
<g id="Logo" clip-path="url(#clip0_0_408)">
<g id="Vector">
</g>
<g id="Vector_2">
</g>
<g id="Vector_3">
</g>
<g id="Vector_4">
</g>
<g id="Vector_5">
</g>
<g id="Vector_6">
</g>
<g id="Vector_7">
</g>
<g id="Vector_8">
</g>
<g id="Vector_9">
</g>
<g id="Vector_10">
</g>
<g id="Vector_11">
</g>
<g id="Vector_12">
</g>
<path id="Vector_13" d="M46.29 30.3698L30.72 4.34133H30.16V34.0169H32.41V10.912L46.2 34.0169H46.37L60.16 10.912V34.0169H62.41V4.34133H61.89L46.29 30.3698Z" fill="#5F6475"/>
<path id="Vector_14" d="M87.0004 34.0167H89.2003V11.9678H87.0004V16.8567C86.2115 15.2847 84.9785 13.9666 83.4472 13.0586C81.916 12.1505 80.1507 11.6906 78.3604 11.7332C73.5504 11.7332 67.6104 15.4683 67.6104 23.0167C67.6104 30.5652 73.5104 34.3296 78.3604 34.3296C80.164 34.37 81.9408 33.8971 83.4747 32.9684C85.0086 32.0397 86.2334 30.6952 87.0004 29.0985V34.0167ZM78.4604 32.4034C74.6104 32.4034 69.7504 29.4701 69.7504 22.9972C69.7504 16.5243 74.6104 13.6203 78.4604 13.6203C82.3104 13.6203 87.0903 16.5047 87.0903 22.9972C87.1203 29.3332 82.3503 32.4034 78.4903 32.4034H78.4604Z" fill="#5F6475"/>
<path id="Vector_15" d="M112.39 21.0807V34.0167H114.56V21.1296C114.56 14.4318 110.14 11.7625 105.72 11.7625C100.38 11.7625 97.5696 15.83 97.3096 17.6291V11.9678H95.1396V34.0167H97.3096V20.9145C97.8696 17.4825 101.08 13.6691 105.46 13.6691C109.31 13.6887 112.39 15.9571 112.39 21.0807Z" fill="#5F6475"/>
<path id="Vector_16" d="M140.7 34.017V11.9681H138.53V16.857C137.739 15.2803 136.502 13.9592 134.965 13.0508C133.427 12.1425 131.656 11.6852 129.86 11.7335C125.05 11.7335 119.11 15.4686 119.11 23.017C119.11 30.5655 125 34.3103 129.86 34.3103C131.667 34.3582 133.449 33.8909 134.988 32.9655C136.528 32.04 137.758 30.6965 138.53 29.0988V33.9877L140.7 34.017ZM130 32.4037C126.14 32.4037 121.29 29.5192 121.29 23.2712C121.29 17.0232 126.14 14.1779 130 14.1779C133.86 14.1779 138.63 16.9743 138.63 23.2712C138.62 29.4019 133.85 32.4037 130 32.4037Z" fill="#5F6475"/>
<path id="Vector_17" d="M164.89 16.8471C164.096 15.2738 162.857 13.956 161.32 13.0497C159.784 12.1434 158.014 11.6866 156.22 11.7333C151.4 11.7333 145.46 15.4684 145.46 23.0169C145.46 30.5653 151.36 34.3298 156.22 34.3298C158.026 34.3751 159.807 33.9068 161.346 32.9817C162.885 32.0565 164.116 30.7144 164.89 29.1182V34.0071C164.89 38.7493 161.29 40.7831 157.56 40.7831C153.83 40.7831 151.62 39.6391 150.75 38.8276V40.7831C151.62 41.5947 153.75 42.7387 157.56 42.7387C161.5 42.7387 167.05 40.6658 167.05 34.056V11.968H164.89V16.8471ZM156.35 32.4036C152.49 32.4036 147.63 29.4702 147.63 22.9973C147.63 16.5244 152.49 13.6204 156.35 13.6204C160.21 13.6204 165 16.5049 165 22.9973C165 29.3333 160.2 32.4036 156.35 32.4036Z" fill="#5F6475"/>
<path id="Vector_18" d="M193.06 22.9973C193.06 15.4489 187.17 11.7138 182.31 11.7138C177.45 11.7138 171.47 15.4489 171.47 22.9973C171.47 30.5458 177.47 34.3102 182.31 34.3102C183.936 34.3406 185.55 34.0179 187.033 33.3653C188.517 32.7126 189.834 31.7463 190.89 30.536L189.2 29.4311C188.338 30.3797 187.275 31.1334 186.085 31.64C184.895 32.1465 183.607 32.3937 182.31 32.3644C180.02 32.3238 177.837 31.411 176.225 29.8204C174.614 28.2298 173.7 26.087 173.68 23.848H193C193.046 23.5668 193.066 23.2821 193.06 22.9973ZM173.68 21.9706C173.756 19.7888 174.696 17.7212 176.301 16.204C177.907 14.6869 180.052 13.8388 182.285 13.8388C184.517 13.8388 186.663 14.6869 188.268 16.204C189.874 17.7212 190.814 19.7888 190.89 21.9706H173.68Z" fill="#5F6475"/>
<path id="Vector_19" d="M18.51 14.5493C17.51 13.0631 15.33 11.4497 11.68 11.4497C6.89 11.4497 1 15.1849 1 22.7626C1 30.3404 6.89 34.1244 11.68 34.1244C15.33 34.1244 18.33 32.032 18.51 30.2133V42.7386H23.29V11.7333H18.51V14.5493ZM12.29 30.0764C9.29 30.0764 5.8 27.5733 5.8 22.7626C5.8 17.952 9.24 15.488 12.29 15.488C15.34 15.488 18.73 17.5315 18.73 22.7626C18.73 27.9937 15.46 30.0764 12.29 30.0764Z" fill="#00A6E0"/>
</g>
<defs>
<clipPath id="clip0_0_408">
<rect width="195" height="44" fill="white"/>
</clipPath>
</defs>
</svg>
