<svg preserveAspectRatio="none" overflow="visible" style="display: block;" width="20" height="20" viewBox="0 0 20 20" fill="none" xmlns="http://www.w3.org/2000/svg">
<g id="new icons">
<mask id="mask0_0_124" style="mask-type:alpha" maskUnits="userSpaceOnUse" x="0" y="0" width="20" height="20">
<rect id="Bounding box" width="20" height="20" fill="#D9D9D9"/>
</mask>
<g mask="url(#mask0_0_124)">
<path id="person_add" d="M15 11.6667V9.16667H12.5V7.5H15V5H16.6667V7.5H19.1667V9.16667H16.6667V11.6667H15ZM5.14583 9.02083C4.49306 8.36806 4.16667 7.58333 4.16667 6.66667C4.16667 5.75 4.49306 4.96528 5.14583 4.3125C5.79861 3.65972 6.58333 3.33333 7.5 3.33333C8.41667 3.33333 9.20139 3.65972 9.85417 4.3125C10.5069 4.96528 10.8333 5.75 10.8333 6.66667C10.8333 7.58333 10.5069 8.36806 9.85417 9.02083C9.20139 9.67361 8.41667 10 7.5 10C6.58333 10 5.79861 9.67361 5.14583 9.02083ZM0.833333 16.6667V14.3333C0.833333 13.8611 0.954861 13.4271 1.19792 13.0312C1.44097 12.6354 1.76389 12.3333 2.16667 12.125C3.02778 11.6944 3.90278 11.3715 4.79167 11.1562C5.68056 10.941 6.58333 10.8333 7.5 10.8333C8.41667 10.8333 9.31944 10.941 10.2083 11.1562C11.0972 11.3715 11.9722 11.6944 12.8333 12.125C13.2361 12.3333 13.559 12.6354 13.8021 13.0312C14.0451 13.4271 14.1667 13.8611 14.1667 14.3333V16.6667H0.833333ZM2.5 15H12.5V14.3333C12.5 14.1806 12.4618 14.0417 12.3854 13.9167C12.309 13.7917 12.2083 13.6944 12.0833 13.625C11.3333 13.25 10.5764 12.9688 9.8125 12.7813C9.04861 12.5938 8.27778 12.5 7.5 12.5C6.72222 12.5 5.95139 12.5938 5.1875 12.7813C4.42361 12.9688 3.66667 13.25 2.91667 13.625C2.79167 13.6944 2.69097 13.7917 2.61458 13.9167C2.53819 14.0417 2.5 14.1806 2.5 14.3333V15ZM8.67708 7.84375C9.00347 7.51736 9.16667 7.125 9.16667 6.66667C9.16667 6.20833 9.00347 5.81597 8.67708 5.48958C8.35069 5.16319 7.95833 5 7.5 5C7.04167 5 6.64931 5.16319 6.32292 5.48958C5.99653 5.81597 5.83333 6.20833 5.83333 6.66667C5.83333 7.125 5.99653 7.51736 6.32292 7.84375C6.64931 8.17014 7.04167 8.33333 7.5 8.33333C7.95833 8.33333 8.35069 8.17014 8.67708 7.84375Z" fill="white"/>
</g>
</g>
</svg>
