<svg preserveAspectRatio="none" overflow="visible" style="display: block;" width="24" height="24" viewBox="0 0 24 24" fill="none" xmlns="http://www.w3.org/2000/svg">
<g id="connect_off">
<g id="Union">
<path d="M22.4141 22L21 23.4141L17.751 20.165C17.1752 20.5722 16.5551 20.9229 15.8877 21.2129C14.6794 21.7379 13.3833 22 12 22C10.6334 22 9.34162 21.7379 8.125 21.2129C6.90833 20.6879 5.84583 19.9708 4.9375 19.0625C4.02917 18.1542 3.31211 17.0917 2.78711 15.875C2.26215 14.6584 2 13.3666 2 12C2 10.6167 2.26211 9.32064 2.78711 8.1123C3.07715 7.44475 3.4259 6.82303 3.83301 6.24707L1.58594 4L3 2.58594L22.4141 22ZM10.0996 16C10.2996 16.7333 10.5583 17.4252 10.875 18.0752C11.1917 18.7251 11.5667 19.3502 12 19.9502C12.4333 19.3502 12.8083 18.7251 13.125 18.0752C13.4066 17.4973 13.638 16.8851 13.8271 16.2412L13.5859 16H10.0996ZM5.09961 16C5.58287 16.8332 6.18725 17.5582 6.91211 18.1748C7.63711 18.7915 8.46706 19.2498 9.40039 19.5498C9.10044 18.9999 8.83728 18.4295 8.6123 17.8379C8.3873 17.2462 8.1998 16.6333 8.0498 16H5.09961ZM15.3877 17.8379C15.1627 18.4295 14.8996 18.9999 14.5996 19.5498C15.221 19.3501 15.7953 19.0785 16.3242 18.7383L15.3965 17.8105C15.3932 17.8195 15.3911 17.829 15.3877 17.8379ZM9.5 12C9.5 12.35 9.51211 12.6877 9.53711 13.0127C9.56211 13.3376 9.6004 13.6667 9.65039 14H11.5859L9.50098 11.915C9.50065 11.9433 9.5 11.9716 9.5 12ZM4.25 10C4.16668 10.3333 4.10417 10.6624 4.0625 10.9873C4.02083 11.3123 4 11.65 4 12C4 12.35 4.02083 12.6877 4.0625 13.0127C4.10417 13.3376 4.16668 13.6667 4.25 14H7.65039C7.6004 13.6667 7.56211 13.3376 7.53711 13.0127C7.51211 12.6877 7.5 12.35 7.5 12C7.5 11.65 7.51211 11.3123 7.53711 10.9873C7.56069 10.6808 7.59667 10.3706 7.64258 10.0566L7.58594 10H4.25ZM5.28418 7.69824C5.22072 7.79713 5.15899 7.89762 5.09961 8H5.58594L5.28418 7.69824Z" fill-rule="evenodd" clip-rule="evenodd" fill="#5F6475"/>
<path d="M12 2C13.3833 2 14.6794 2.26211 15.8877 2.78711C17.096 3.31211 18.1542 4.02917 19.0625 4.9375C19.9708 5.84583 20.6879 6.90398 21.2129 8.1123C21.7379 9.32064 22 10.6167 22 12C22 13.3666 21.7379 14.6584 21.2129 15.875C20.8939 16.6142 20.5025 17.2955 20.042 17.9209L18.5986 16.4775C18.703 16.3221 18.8053 16.1639 18.9004 16H18.1211L14.4922 12.3711C14.4954 12.249 14.5 12.1253 14.5 12C14.5 11.65 14.4879 11.3123 14.4629 10.9873C14.4379 10.6624 14.3996 10.3333 14.3496 10H12.1211L10.1211 8H13.9004C13.7004 7.26667 13.4417 6.5748 13.125 5.9248C12.8083 5.27486 12.4333 4.64976 12 4.0498C11.5667 4.64976 11.1917 5.27486 10.875 5.9248C10.5607 6.5699 10.3039 7.25622 10.1045 7.9834L8.52441 6.40332C8.55339 6.32277 8.58196 6.2419 8.6123 6.16211C8.83728 5.57054 9.10044 5.00011 9.40039 4.4502C8.70927 4.67234 8.07493 4.98118 7.49805 5.37695L6.07812 3.95703C6.70356 3.4965 7.38573 3.10611 8.125 2.78711C9.34162 2.26215 10.6334 2 12 2ZM16.3496 10C16.3996 10.3333 16.4379 10.6624 16.4629 10.9873C16.4879 11.3123 16.5 11.65 16.5 12C16.5 12.35 16.4879 12.6877 16.4629 13.0127C16.4379 13.3376 16.3996 13.6667 16.3496 14H19.75C19.8333 13.6667 19.8958 13.3376 19.9375 13.0127C19.9792 12.6877 20 12.35 20 12C20 11.65 19.9792 11.3123 19.9375 10.9873C19.8958 10.6624 19.8333 10.3333 19.75 10H16.3496ZM14.5996 4.4502C14.8996 5.00011 15.1627 5.57054 15.3877 6.16211C15.6127 6.75378 15.8002 7.36667 15.9502 8H18.9004C18.4171 7.16679 17.8127 6.4418 17.0879 5.8252C16.3629 5.20853 15.5329 4.7502 14.5996 4.4502Z" fill-rule="evenodd" clip-rule="evenodd" fill="#5F6475"/>
</g>
</g>
</svg>
